<svg xmlns="http://www.w3.org/2000/svg" version="1.1" xmlns:xlink="http://www.w3.org/1999/xlink" xmlns:svgjs="http://svgjs.com/svgjs" width="512" height="512"><svg version="1.1" id="SvgjsSvg1000" xmlns="http://www.w3.org/2000/svg" xmlns:xlink="http://www.w3.org/1999/xlink" viewBox="0 0 512 512" xml:space="preserve">
<path style="fill:#FF6464;" d="M490.174,93.736v369.652c0,20.492-16.614,37.106-37.106,37.106H58.932
	c-20.492,0-37.106-16.614-37.106-37.106V93.736c0-20.492,16.614-37.106,37.106-37.106h9.527v363.762
	c0,20.791,16.867,37.646,37.658,37.646h21.343c20.791,0,37.646-16.856,37.646-37.646V56.631h287.963
	C473.56,56.631,490.174,73.245,490.174,93.736z M442.115,184.964v-66.433h-228.41v66.433H442.115z M442.115,252.836
	c0-13.462-10.919-24.38-24.38-24.38c-13.473,0-24.392,10.919-24.392,24.38c0,13.473,10.919,24.392,24.392,24.392
	C431.196,277.228,442.115,266.309,442.115,252.836z M442.115,338.346c0-13.473-10.919-24.392-24.38-24.392
	c-13.473,0-24.392,10.919-24.392,24.392c0,13.462,10.919,24.392,24.392,24.392C431.196,362.738,442.115,351.807,442.115,338.346z
	 M442.115,423.844c0-13.462-10.919-24.392-24.38-24.392c-13.473,0-24.392,10.93-24.392,24.392c0,13.473,10.919,24.392,24.392,24.392
	C431.196,448.236,442.115,437.317,442.115,423.844z M352.302,252.836c0-13.462-10.919-24.38-24.392-24.38
	c-13.462,0-24.38,10.919-24.38,24.38c0,13.473,10.919,24.392,24.38,24.392C341.383,277.228,352.302,266.309,352.302,252.836z
	 M352.302,338.346c0-13.473-10.919-24.392-24.392-24.392c-13.462,0-24.38,10.919-24.38,24.392c0,13.462,10.919,24.392,24.38,24.392
	C341.383,362.738,352.302,351.807,352.302,338.346z M352.302,423.844c0-13.462-10.919-24.392-24.392-24.392
	c-13.462,0-24.38,10.93-24.38,24.392c0,13.473,10.919,24.392,24.38,24.392C341.383,448.236,352.302,437.317,352.302,423.844z
	 M262.489,252.836c0-13.462-10.919-24.38-24.392-24.38c-13.473,0-24.392,10.919-24.392,24.38c0,13.473,10.919,24.392,24.392,24.392
	S262.489,266.309,262.489,252.836z M262.489,338.346c0-13.473-10.919-24.392-24.392-24.392c-13.473,0-24.392,10.919-24.392,24.392
	c0,13.462,10.919,24.392,24.392,24.392C251.57,362.738,262.489,351.807,262.489,338.346z M262.489,423.844
	c0-13.462-10.919-24.392-24.392-24.392c-13.473,0-24.392,10.93-24.392,24.392c0,13.473,10.919,24.392,24.392,24.392
	C251.57,448.236,262.489,437.317,262.489,423.844z"></path>
<rect x="213.705" y="118.531" style="fill:#94D8F2;" width="228.41" height="66.433"></rect>
<g>
	<path style="fill:#FFA8A8;" d="M417.734,228.456c13.462,0,24.38,10.919,24.38,24.38c0,13.473-10.919,24.392-24.38,24.392
		c-13.473,0-24.392-10.919-24.392-24.392C393.343,239.374,404.261,228.456,417.734,228.456z"></path>
	<path style="fill:#FFA8A8;" d="M417.734,313.954c13.462,0,24.38,10.919,24.38,24.392c0,13.462-10.919,24.392-24.38,24.392
		c-13.473,0-24.392-10.93-24.392-24.392C393.343,324.873,404.261,313.954,417.734,313.954z"></path>
	<path style="fill:#FFA8A8;" d="M417.734,399.452c13.462,0,24.38,10.93,24.38,24.392c0,13.473-10.919,24.392-24.38,24.392
		c-13.473,0-24.392-10.919-24.392-24.392C393.343,410.382,404.261,399.452,417.734,399.452z"></path>
	<path style="fill:#FFA8A8;" d="M327.91,228.456c13.473,0,24.392,10.919,24.392,24.38c0,13.473-10.919,24.392-24.392,24.392
		c-13.462,0-24.38-10.919-24.38-24.392C303.53,239.374,314.449,228.456,327.91,228.456z"></path>
	<path style="fill:#FFA8A8;" d="M327.91,313.954c13.473,0,24.392,10.919,24.392,24.392c0,13.462-10.919,24.392-24.392,24.392
		c-13.462,0-24.38-10.93-24.38-24.392C303.53,324.873,314.449,313.954,327.91,313.954z"></path>
	<path style="fill:#FFA8A8;" d="M327.91,399.452c13.473,0,24.392,10.93,24.392,24.392c0,13.473-10.919,24.392-24.392,24.392
		c-13.462,0-24.38-10.919-24.38-24.392C303.53,410.382,314.449,399.452,327.91,399.452z"></path>
	<path style="fill:#FFA8A8;" d="M238.097,228.456c13.473,0,24.392,10.919,24.392,24.38c0,13.473-10.919,24.392-24.392,24.392
		c-13.473,0-24.392-10.919-24.392-24.392C213.705,239.374,224.624,228.456,238.097,228.456z"></path>
	<path style="fill:#FFA8A8;" d="M238.097,313.954c13.473,0,24.392,10.919,24.392,24.392c0,13.462-10.919,24.392-24.392,24.392
		c-13.473,0-24.392-10.93-24.392-24.392C213.705,324.873,224.624,313.954,238.097,313.954z"></path>
	<path style="fill:#FFA8A8;" d="M238.097,399.452c13.473,0,24.392,10.93,24.392,24.392c0,13.473-10.919,24.392-24.392,24.392
		c-13.473,0-24.392-10.919-24.392-24.392C213.705,410.382,224.624,399.452,238.097,399.452z"></path>
	<path style="fill:#FFA8A8;" d="M165.106,56.631v363.762c0,20.791-16.856,37.646-37.646,37.646h-21.343
		c-20.791,0-37.658-16.856-37.658-37.646V56.631v-7.467c0-20.802,16.867-37.658,37.658-37.658h21.343
		c20.791,0,37.646,16.856,37.646,37.658V56.631z"></path>
</g>
<path d="M501.679,93.736c0-26.805-21.807-48.611-48.611-48.611H176.432C174.37,19.9,153.201,0,127.459,0h-21.343
	C80.353,0,59.17,19.924,57.129,45.171c-25.972,0.953-46.808,22.366-46.808,48.565v369.652c0,26.805,21.807,48.611,48.611,48.611
	h394.136c26.805,0,48.611-21.807,48.611-48.611V93.736z M478.668,463.389c0,14.116-11.484,25.6-25.6,25.6H58.932
	c-14.116,0-25.6-11.484-25.6-25.6V93.736c0-13.449,10.428-24.501,23.621-25.516v352.172c0,27.103,22.055,49.152,49.164,49.152
	h21.343c27.103,0,49.152-22.049,49.152-49.152V157.819c0-6.355-5.152-11.506-11.506-11.506s-11.506,5.151-11.506,11.506v262.573
	c0,14.414-11.727,26.141-26.141,26.141h-21.343c-14.42,0-26.152-11.727-26.152-26.141V49.164c0-14.42,11.732-26.152,26.152-26.152
	h21.343c14.413,0,26.141,11.732,26.141,26.152v42.583c0,6.355,5.152,11.506,11.506,11.506s11.506-5.151,11.506-11.506V68.136
	h276.457c14.116,0,25.6,11.484,25.6,25.6V463.389z"></path>
<path d="M442.115,107.025h-228.41c-6.353,0-11.506,5.151-11.506,11.506v66.433c0,6.355,5.152,11.506,11.506,11.506h228.41
	c6.353,0,11.506-5.151,11.506-11.506v-66.433C453.621,112.176,448.468,107.025,442.115,107.025z M430.609,173.459H225.211v-43.422
	h205.398V173.459z"></path>
<path d="M165.106,109.591c-6.353,0-11.506,5.151-11.506,11.506v3.452c0,6.355,5.152,11.506,11.506,11.506
	s11.506-5.151,11.506-11.506v-3.452C176.611,114.742,171.459,109.591,165.106,109.591z"></path>
<path d="M238.097,216.95c-19.794,0-35.898,16.099-35.898,35.886c0,19.794,16.103,35.898,35.898,35.898
	c19.793,0,35.896-16.104,35.896-35.898C273.995,233.049,257.892,216.95,238.097,216.95z M238.097,265.722
	c-7.106,0-12.886-5.78-12.886-12.886c0-7.099,5.78-12.875,12.886-12.875c7.105,0,12.885,5.776,12.885,12.875
	C250.984,259.942,245.202,265.722,238.097,265.722z"></path>
<path d="M327.91,216.95c-19.787,0-35.886,16.099-35.886,35.886c0,19.794,16.099,35.898,35.886,35.898
	c19.794,0,35.898-16.104,35.898-35.898C363.808,233.049,347.704,216.95,327.91,216.95z M327.91,265.722
	c-7.1,0-12.875-5.78-12.875-12.886c0-7.099,5.776-12.875,12.875-12.875c7.106,0,12.886,5.776,12.886,12.875
	C340.796,259.942,335.016,265.722,327.91,265.722z"></path>
<path d="M417.734,216.95c-19.794,0-35.898,16.099-35.898,35.886c0,19.794,16.103,35.898,35.898,35.898
	c19.787,0,35.885-16.104,35.885-35.898C453.621,233.049,437.523,216.95,417.734,216.95z M417.734,265.722
	c-7.106,0-12.886-5.78-12.886-12.886c0-7.099,5.78-12.875,12.886-12.875c7.099,0,12.874,5.776,12.874,12.875
	C430.609,259.942,424.833,265.722,417.734,265.722z"></path>
<path d="M238.097,302.448c-19.794,0-35.898,16.103-35.898,35.898c0,19.794,16.103,35.898,35.898,35.898
	c19.793,0,35.896-16.104,35.896-35.898C273.994,318.553,257.892,302.448,238.097,302.448z M238.097,351.232
	c-7.106,0-12.886-5.78-12.886-12.886s5.78-12.886,12.886-12.886c7.105,0,12.885,5.78,12.885,12.886S245.202,351.232,238.097,351.232
	z"></path>
<path d="M327.91,302.448c-19.787,0-35.886,16.103-35.886,35.898c0,19.794,16.099,35.898,35.886,35.898
	c19.794,0,35.898-16.104,35.898-35.898C363.808,318.553,347.704,302.448,327.91,302.448z M327.91,351.232
	c-7.1,0-12.875-5.78-12.875-12.886s5.776-12.886,12.875-12.886c7.106,0,12.886,5.78,12.886,12.886S335.016,351.232,327.91,351.232z"></path>
<path d="M417.734,302.448c-19.794,0-35.898,16.103-35.898,35.898c0,19.794,16.103,35.898,35.898,35.898
	c19.787,0,35.885-16.104,35.885-35.898C453.619,318.553,437.523,302.448,417.734,302.448z M417.734,351.232
	c-7.106,0-12.886-5.78-12.886-12.886s5.78-12.886,12.886-12.886c7.099,0,12.874,5.78,12.874,12.886S424.833,351.232,417.734,351.232
	z"></path>
<path d="M238.097,387.946c-19.794,0-35.898,16.103-35.898,35.898s16.103,35.898,35.898,35.898c19.793,0,35.896-16.104,35.896-35.898
	S257.892,387.946,238.097,387.946z M238.097,436.73c-7.106,0-12.886-5.78-12.886-12.886c0-7.105,5.78-12.886,12.886-12.886
	c7.105,0,12.885,5.78,12.885,12.886C250.984,430.95,245.202,436.73,238.097,436.73z"></path>
<path d="M327.91,387.946c-19.787,0-35.886,16.103-35.886,35.898s16.099,35.898,35.886,35.898c19.794,0,35.898-16.104,35.898-35.898
	S347.704,387.946,327.91,387.946z M327.91,436.73c-7.1,0-12.875-5.78-12.875-12.886c0-7.105,5.776-12.886,12.875-12.886
	c7.106,0,12.886,5.78,12.886,12.886S335.016,436.73,327.91,436.73z"></path>
<path d="M417.734,387.946c-19.794,0-35.898,16.103-35.898,35.898s16.103,35.898,35.898,35.898c19.787,0,35.885-16.104,35.885-35.898
	S437.523,387.946,417.734,387.946z M417.734,436.73c-7.106,0-12.886-5.78-12.886-12.886c0-7.105,5.78-12.886,12.886-12.886
	c7.099,0,12.874,5.78,12.874,12.886C430.609,430.95,424.833,436.73,417.734,436.73z"></path>
</svg><style>@media (prefers-color-scheme: light) { :root { filter: none; } }
</style></svg>